<?xml version="1.0" encoding="UTF-8"?>
<svg xmlns="http://www.w3.org/2000/svg" xmlns:xlink="http://www.w3.org/1999/xlink" width="128pt" height="128pt" viewBox="0 0 128 128" version="1.1">
<g id="surface1">
<path style=" stroke:none;fill-rule:nonzero;fill:rgb(0%,0%,0%);fill-opacity:1;" d="M 123.824219 15.304688 L 4.175781 15.304688 C 1.867188 15.304688 0 17.171875 0 19.476562 L 0 40.257812 L 128 40.257812 L 128 19.476562 C 128 17.171875 126.132812 15.304688 123.824219 15.304688 Z M 80.570312 33.347656 C 77.503906 33.347656 75.003906 30.851562 75.003906 27.78125 C 75.003906 24.710938 77.503906 22.214844 80.570312 22.214844 C 83.640625 22.214844 86.136719 24.710938 86.136719 27.78125 C 86.136719 30.851562 83.640625 33.347656 80.570312 33.347656 Z M 95.730469 33.347656 C 92.664062 33.347656 90.167969 30.851562 90.167969 27.78125 C 90.167969 24.710938 92.664062 22.214844 95.730469 22.214844 C 98.800781 22.214844 101.296875 24.710938 101.296875 27.78125 C 101.296875 30.851562 98.800781 33.347656 95.730469 33.347656 Z M 110.890625 33.347656 C 107.824219 33.347656 105.328125 30.851562 105.328125 27.78125 C 105.328125 24.710938 107.824219 22.214844 110.890625 22.214844 C 113.960938 22.214844 116.457031 24.710938 116.457031 27.78125 C 116.457031 30.851562 113.960938 33.347656 110.890625 33.347656 Z M 110.890625 33.347656 "/>
<path style=" stroke:none;fill-rule:nonzero;fill:rgb(0%,0%,0%);fill-opacity:1;" d="M 0 48.605469 L 0 108.523438 C 0 110.828125 1.867188 112.695312 4.175781 112.695312 L 123.828125 112.695312 C 126.132812 112.695312 128 110.828125 128 108.523438 L 128 48.605469 Z M 58.863281 83.828125 L 45.199219 95.457031 C 43.445312 96.949219 40.808594 96.738281 39.316406 94.980469 C 37.820312 93.226562 38.035156 90.59375 39.789062 89.097656 L 49.714844 80.652344 L 39.789062 72.203125 C 38.035156 70.710938 37.820312 68.074219 39.316406 66.320312 C 40.808594 64.5625 43.445312 64.351562 45.199219 65.847656 L 58.863281 77.472656 C 60.820312 79.136719 60.820312 82.164062 58.863281 83.828125 Z M 85.503906 96.449219 L 69.015625 96.449219 C 66.710938 96.449219 64.84375 94.582031 64.84375 92.277344 C 64.84375 89.972656 66.710938 88.101562 69.015625 88.101562 L 85.503906 88.101562 C 87.808594 88.101562 89.679688 89.972656 89.679688 92.277344 C 89.679688 94.582031 87.808594 96.449219 85.503906 96.449219 Z M 85.503906 96.449219 "/>
</g>
</svg>
